<svg xmlns="http://www.w3.org/2000/svg" viewBox="0 0 512 512" style="height: 128px; width: 128px;"><path d="M0 0h512v512H0z" fill="#000000" fill-opacity="0.01"></path><g class="" transform="translate(0,0)" style=""><path d="M256 23.05C127.5 23.05 23.05 127.5 23.05 256S127.5 488.9 256 488.9 488.9 384.5 488.9 256 384.5 23.05 256 23.05zm0 17.9c118.9 0 215.1 96.15 215.1 215.05S374.9 471.1 256 471.1c-118.9 0-215.05-96.2-215.05-215.1C40.95 137.1 137.1 40.95 256 40.95z" fill="#f5a623" fill-opacity="1" stroke="#f5a623" stroke-opacity="1" stroke-width="90" transform="translate(435.2, 76.8) scale(-0.7, 0.7) rotate(0, 256, 256) skewX(0) skewY(0)"></path></g></svg>